<svg viewBox="0 0 1200 170" xmlns="http://www.w3.org/2000/svg" width="100%" role="img" aria-label="DNA to neural network">
<defs>
<linearGradient id="g" x1="0" y1="0" x2="1200" y2="0" gradientUnits="userSpaceOnUse"><stop offset="0" stop-color="#12235F"/><stop offset="0.5" stop-color="#2E5FE8"/><stop offset="1" stop-color="#7C4DFF"/></linearGradient>
</defs>
<line x1="52" y1="106.5" x2="52" y2="63.5" stroke="url(#g)" stroke-width="2" opacity="0.45"/>
<line x1="72" y1="126.6" x2="72" y2="43.4" stroke="url(#g)" stroke-width="2" opacity="0.45"/>
<line x1="92" y1="115.4" x2="92" y2="54.6" stroke="url(#g)" stroke-width="2" opacity="0.45"/>
<line x1="112" y1="81.2" x2="112" y2="88.8" stroke="url(#g)" stroke-width="2" opacity="0.45"/>
<line x1="132" y1="49.9" x2="132" y2="120.1" stroke="url(#g)" stroke-width="2" opacity="0.45"/>
<line x1="152" y1="45.1" x2="152" y2="124.9" stroke="url(#g)" stroke-width="2" opacity="0.45"/>
<line x1="172" y1="70.2" x2="172" y2="99.8" stroke="url(#g)" stroke-width="2" opacity="0.45"/>
<line x1="192" y1="106.5" x2="192" y2="63.5" stroke="url(#g)" stroke-width="2" opacity="0.45"/>
<line x1="212" y1="126.6" x2="212" y2="43.4" stroke="url(#g)" stroke-width="2" opacity="0.45"/>
<line x1="232" y1="115.4" x2="232" y2="54.6" stroke="url(#g)" stroke-width="2" opacity="0.45"/>
<line x1="252" y1="81.2" x2="252" y2="88.8" stroke="url(#g)" stroke-width="2" opacity="0.45"/>
<line x1="272" y1="49.9" x2="272" y2="120.1" stroke="url(#g)" stroke-width="2" opacity="0.45"/>
<line x1="292" y1="45.1" x2="292" y2="124.9" stroke="url(#g)" stroke-width="2" opacity="0.45"/>
<line x1="312" y1="70.2" x2="312" y2="99.8" stroke="url(#g)" stroke-width="2" opacity="0.45"/>
<line x1="332" y1="106.5" x2="332" y2="63.5" stroke="url(#g)" stroke-width="2" opacity="0.45"/>
<line x1="352" y1="126.6" x2="352" y2="43.4" stroke="url(#g)" stroke-width="2" opacity="0.45"/>
<polyline points="40.0,85.0 44.0,92.5 48.0,99.8 52.0,106.5 56.0,112.6 60.0,117.8 64.0,122.0 68.0,124.9 72.0,126.6 76.0,127.0 80.0,125.9 84.0,123.6 88.0,120.1 92.0,115.4 96.0,109.7 100.0,103.2 104.0,96.2 108.0,88.8 112.0,81.2 116.0,73.8 120.0,66.8 124.0,60.3 128.0,54.6 132.0,49.9 136.0,46.4 140.0,44.1 144.0,43.0 148.0,43.4 152.0,45.1 156.0,48.0 160.0,52.2 164.0,57.4 168.0,63.5 172.0,70.2 176.0,77.5 180.0,85.0 184.0,92.5 188.0,99.8 192.0,106.5 196.0,112.6 200.0,117.8 204.0,122.0 208.0,124.9 212.0,126.6 216.0,127.0 220.0,125.9 224.0,123.6 228.0,120.1 232.0,115.4 236.0,109.7 240.0,103.2 244.0,96.2 248.0,88.8 252.0,81.2 256.0,73.8 260.0,66.8 264.0,60.3 268.0,54.6 272.0,49.9 276.0,46.4 280.0,44.1 284.0,43.0 288.0,43.4 292.0,45.1 296.0,48.0 300.0,52.2 304.0,57.4 308.0,63.5 312.0,70.2 316.0,77.5 320.0,85.0 324.0,92.5 328.0,99.8 332.0,106.5 336.0,112.6 340.0,117.8 344.0,122.0 348.0,124.9 352.0,126.6 356.0,127.0 360.0,125.9" fill="none" stroke="url(#g)" stroke-width="3.2" stroke-linecap="round"/>
<polyline points="40.0,85.0 44.0,77.5 48.0,70.2 52.0,63.5 56.0,57.4 60.0,52.2 64.0,48.0 68.0,45.1 72.0,43.4 76.0,43.0 80.0,44.1 84.0,46.4 88.0,49.9 92.0,54.6 96.0,60.3 100.0,66.8 104.0,73.8 108.0,81.2 112.0,88.8 116.0,96.2 120.0,103.2 124.0,109.7 128.0,115.4 132.0,120.1 136.0,123.6 140.0,125.9 144.0,127.0 148.0,126.6 152.0,124.9 156.0,122.0 160.0,117.8 164.0,112.6 168.0,106.5 172.0,99.8 176.0,92.5 180.0,85.0 184.0,77.5 188.0,70.2 192.0,63.5 196.0,57.4 200.0,52.2 204.0,48.0 208.0,45.1 212.0,43.4 216.0,43.0 220.0,44.1 224.0,46.4 228.0,49.9 232.0,54.6 236.0,60.3 240.0,66.8 244.0,73.8 248.0,81.2 252.0,88.8 256.0,96.2 260.0,103.2 264.0,109.7 268.0,115.4 272.0,120.1 276.0,123.6 280.0,125.9 284.0,127.0 288.0,126.6 292.0,124.9 296.0,122.0 300.0,117.8 304.0,112.6 308.0,106.5 312.0,99.8 316.0,92.5 320.0,85.0 324.0,77.5 328.0,70.2 332.0,63.5 336.0,57.4 340.0,52.2 344.0,48.0 348.0,45.1 352.0,43.4 356.0,43.0 360.0,44.1" fill="none" stroke="url(#g)" stroke-width="3.2" stroke-linecap="round"/>
<line x1="366" y1="85.0" x2="720" y2="25.0" stroke="url(#g)" stroke-width="1.4" opacity="0.35"/>
<line x1="366" y1="85.0" x2="720" y2="65.0" stroke="url(#g)" stroke-width="1.4" opacity="0.35"/>
<line x1="366" y1="85.0" x2="720" y2="105.0" stroke="url(#g)" stroke-width="1.4" opacity="0.35"/>
<line x1="366" y1="85.0" x2="720" y2="145.0" stroke="url(#g)" stroke-width="1.4" opacity="0.35"/>
<line x1="720" y1="25.0" x2="900" y2="13.0" stroke="url(#g)" stroke-width="1.1" opacity="0.30"/>
<line x1="720" y1="25.0" x2="900" y2="49.0" stroke="url(#g)" stroke-width="1.1" opacity="0.30"/>
<line x1="720" y1="25.0" x2="900" y2="85.0" stroke="url(#g)" stroke-width="1.1" opacity="0.30"/>
<line x1="720" y1="25.0" x2="900" y2="121.0" stroke="url(#g)" stroke-width="1.1" opacity="0.30"/>
<line x1="720" y1="25.0" x2="900" y2="157.0" stroke="url(#g)" stroke-width="1.1" opacity="0.30"/>
<line x1="720" y1="65.0" x2="900" y2="13.0" stroke="url(#g)" stroke-width="1.1" opacity="0.30"/>
<line x1="720" y1="65.0" x2="900" y2="49.0" stroke="url(#g)" stroke-width="1.1" opacity="0.30"/>
<line x1="720" y1="65.0" x2="900" y2="85.0" stroke="url(#g)" stroke-width="1.1" opacity="0.30"/>
<line x1="720" y1="65.0" x2="900" y2="121.0" stroke="url(#g)" stroke-width="1.1" opacity="0.30"/>
<line x1="720" y1="65.0" x2="900" y2="157.0" stroke="url(#g)" stroke-width="1.1" opacity="0.30"/>
<line x1="720" y1="105.0" x2="900" y2="13.0" stroke="url(#g)" stroke-width="1.1" opacity="0.30"/>
<line x1="720" y1="105.0" x2="900" y2="49.0" stroke="url(#g)" stroke-width="1.1" opacity="0.30"/>
<line x1="720" y1="105.0" x2="900" y2="85.0" stroke="url(#g)" stroke-width="1.1" opacity="0.30"/>
<line x1="720" y1="105.0" x2="900" y2="121.0" stroke="url(#g)" stroke-width="1.1" opacity="0.30"/>
<line x1="720" y1="105.0" x2="900" y2="157.0" stroke="url(#g)" stroke-width="1.1" opacity="0.30"/>
<line x1="720" y1="145.0" x2="900" y2="13.0" stroke="url(#g)" stroke-width="1.1" opacity="0.30"/>
<line x1="720" y1="145.0" x2="900" y2="49.0" stroke="url(#g)" stroke-width="1.1" opacity="0.30"/>
<line x1="720" y1="145.0" x2="900" y2="85.0" stroke="url(#g)" stroke-width="1.1" opacity="0.30"/>
<line x1="720" y1="145.0" x2="900" y2="121.0" stroke="url(#g)" stroke-width="1.1" opacity="0.30"/>
<line x1="720" y1="145.0" x2="900" y2="157.0" stroke="url(#g)" stroke-width="1.1" opacity="0.30"/>
<line x1="900" y1="13.0" x2="1080" y2="55.0" stroke="url(#g)" stroke-width="1.1" opacity="0.30"/>
<line x1="900" y1="13.0" x2="1080" y2="115.0" stroke="url(#g)" stroke-width="1.1" opacity="0.30"/>
<line x1="900" y1="49.0" x2="1080" y2="55.0" stroke="url(#g)" stroke-width="1.1" opacity="0.30"/>
<line x1="900" y1="49.0" x2="1080" y2="115.0" stroke="url(#g)" stroke-width="1.1" opacity="0.30"/>
<line x1="900" y1="85.0" x2="1080" y2="55.0" stroke="url(#g)" stroke-width="1.1" opacity="0.30"/>
<line x1="900" y1="85.0" x2="1080" y2="115.0" stroke="url(#g)" stroke-width="1.1" opacity="0.30"/>
<line x1="900" y1="121.0" x2="1080" y2="55.0" stroke="url(#g)" stroke-width="1.1" opacity="0.30"/>
<line x1="900" y1="121.0" x2="1080" y2="115.0" stroke="url(#g)" stroke-width="1.1" opacity="0.30"/>
<line x1="900" y1="157.0" x2="1080" y2="55.0" stroke="url(#g)" stroke-width="1.1" opacity="0.30"/>
<line x1="900" y1="157.0" x2="1080" y2="115.0" stroke="url(#g)" stroke-width="1.1" opacity="0.30"/>
<circle cx="720" cy="25.0" r="8" fill="url(#g)"/>
<circle cx="720" cy="25.0" r="8" fill="none" stroke="#ffffff" stroke-width="1.4" opacity="0.6"/>
<circle cx="720" cy="65.0" r="8" fill="url(#g)"/>
<circle cx="720" cy="65.0" r="8" fill="none" stroke="#ffffff" stroke-width="1.4" opacity="0.6"/>
<circle cx="720" cy="105.0" r="8" fill="url(#g)"/>
<circle cx="720" cy="105.0" r="8" fill="none" stroke="#ffffff" stroke-width="1.4" opacity="0.6"/>
<circle cx="720" cy="145.0" r="8" fill="url(#g)"/>
<circle cx="720" cy="145.0" r="8" fill="none" stroke="#ffffff" stroke-width="1.4" opacity="0.6"/>
<circle cx="900" cy="13.0" r="8" fill="url(#g)"/>
<circle cx="900" cy="13.0" r="8" fill="none" stroke="#ffffff" stroke-width="1.4" opacity="0.6"/>
<circle cx="900" cy="49.0" r="8" fill="url(#g)"/>
<circle cx="900" cy="49.0" r="8" fill="none" stroke="#ffffff" stroke-width="1.4" opacity="0.6"/>
<circle cx="900" cy="85.0" r="8" fill="url(#g)"/>
<circle cx="900" cy="85.0" r="8" fill="none" stroke="#ffffff" stroke-width="1.4" opacity="0.6"/>
<circle cx="900" cy="121.0" r="8" fill="url(#g)"/>
<circle cx="900" cy="121.0" r="8" fill="none" stroke="#ffffff" stroke-width="1.4" opacity="0.6"/>
<circle cx="900" cy="157.0" r="8" fill="url(#g)"/>
<circle cx="900" cy="157.0" r="8" fill="none" stroke="#ffffff" stroke-width="1.4" opacity="0.6"/>
<circle cx="1080" cy="55.0" r="8" fill="url(#g)"/>
<circle cx="1080" cy="55.0" r="8" fill="none" stroke="#ffffff" stroke-width="1.4" opacity="0.6"/>
<circle cx="1080" cy="115.0" r="8" fill="url(#g)"/>
<circle cx="1080" cy="115.0" r="8" fill="none" stroke="#ffffff" stroke-width="1.4" opacity="0.6"/>
</svg>